<svg width="93" height="76" viewBox="0 0 93 76" fill="none" xmlns="http://www.w3.org/2000/svg">
<path d="M27.069 76H5.49642C2.46564 76 0 73.5309 0 70.496V5.4931C0 2.46427 2.46564 0 5.49642 0H27.0688C30.0996 0 32.5655 2.46407 32.5655 5.4931V70.496C32.5657 73.5309 30.0998 76 27.069 76ZM5.49642 2.62261C3.91183 2.62261 2.62281 3.91026 2.62281 5.4931V70.496C2.62281 72.0849 3.91183 73.3774 5.49642 73.3774H27.0688C28.6534 73.3774 29.9427 72.0849 29.9427 70.496V5.4931C29.9427 3.91026 28.6534 2.62261 27.0688 2.62261H5.49642Z" fill="black"/>
<path d="M57.0117 76H35.4438C32.4105 76 29.9429 73.5309 29.9429 70.496V5.4931C29.9429 2.46427 32.4107 0 35.4438 0H57.0117C60.0413 0 62.506 2.46407 62.506 5.4931V70.496C62.506 73.5309 60.0413 76 57.0117 76ZM35.4438 2.62261C33.8567 2.62261 32.5657 3.91026 32.5657 5.4931V70.496C32.5657 72.0849 33.8567 73.3774 35.4438 73.3774H57.0117C58.5953 73.3774 59.8834 72.0849 59.8834 70.496V5.4931C59.8834 3.91026 58.5951 2.62261 57.0117 2.62261H35.4438Z" fill="black"/>
<path d="M86.9565 76H65.3884C62.3529 76 59.8834 73.5309 59.8834 70.496V5.4931C59.8834 2.46427 62.3529 0 65.3884 0H86.9565C89.9898 0 92.4574 2.46407 92.4574 5.4931V70.496C92.4574 73.5309 89.9898 76 86.9565 76ZM65.3884 2.62261C63.7991 2.62261 62.506 3.91026 62.506 5.4931V70.496C62.506 72.0849 63.7991 73.3774 65.3884 73.3774H86.9565C88.5434 73.3774 89.8348 72.0849 89.8348 70.496V5.4931C89.8348 3.91026 88.5436 2.62261 86.9565 2.62261H65.3884Z" fill="black"/>
</svg>
