<svg width="93" height="68" viewBox="0 0 93 68" fill="none" xmlns="http://www.w3.org/2000/svg">
<path d="M45.9056 55.2006C33.2678 55.2007 23.8756 49.1275 14.792 43.2539C10.5261 40.4958 6.11518 37.6436 1.46599 35.5101C1.456 35.5056 1.446 35.5009 1.4362 35.4962C1.22711 35.3939 1.00979 35.2975 0.786787 35.1997C0.309228 34.9906 0.000588727 34.5188 8.42095e-07 33.9975C-0.000587043 33.4762 0.306681 33.0038 0.783651 32.7931C5.70151 30.6219 10.405 27.6756 14.9536 24.8261C24.2799 18.9837 33.9237 12.9424 46.3261 12.7948C46.3367 12.7948 46.3469 12.7948 46.3575 12.7948C58.7583 12.9426 68.4028 18.9839 77.7298 24.8261C82.2786 27.6756 86.9823 30.6219 91.9 32.7931C92.3777 33.004 92.6852 33.4774 92.6836 33.9995C92.6821 34.5215 92.3718 34.9932 91.8931 35.2013C91.646 35.3087 91.4395 35.4029 91.2425 35.4984C91.2343 35.5025 91.2261 35.5062 91.2178 35.5101C86.5706 37.643 82.1605 40.4942 77.8956 43.2516C68.7057 49.193 59.2051 55.332 46.342 55.1982C46.1968 55.1998 46.0481 55.2007 45.9056 55.2006ZM4.39562 34.0014C8.52943 36.0739 12.4308 38.5963 16.2194 41.046C25.3855 46.9727 34.0448 52.5711 45.9054 52.5711C46.0441 52.5766 46.1864 52.5704 46.3267 52.5688C46.3367 52.5688 46.3465 52.5688 46.3563 52.5688C46.4962 52.5704 46.6354 52.5711 46.7747 52.5711C58.6374 52.5711 67.2982 46.9719 76.4674 41.0437C80.2551 38.5948 84.155 36.0733 88.2874 34.0012C84.1371 31.9424 80.1809 29.4643 76.3336 27.0542C66.9033 21.1469 57.9964 15.5673 46.3412 15.4239C34.6846 15.5671 25.7784 21.1469 16.3489 27.0542C12.502 29.4643 8.54589 31.9426 4.39562 34.0014Z" fill="black"/>
<path d="M46.3416 45.5649C39.9595 45.5649 34.7673 40.3753 34.7673 33.9959C34.7673 27.6164 39.9595 22.4263 46.3416 22.4263C52.7237 22.4263 57.9159 27.6164 57.9159 33.9959C57.9159 40.3753 52.7237 45.5649 46.3416 45.5649ZM46.3416 25.0554C41.4093 25.0554 37.3966 29.0661 37.3966 33.9959C37.3966 38.9253 41.4093 42.9359 46.3416 42.9359C51.274 42.9359 55.2869 38.9253 55.2869 33.9959C55.2869 29.0661 51.274 25.0554 46.3416 25.0554Z" fill="black"/>
<path d="M79.0476 68C78.7114 68 78.3749 67.8718 78.1184 67.6153L12.7107 2.24445C12.197 1.73122 12.1968 0.898779 12.7103 0.385359C13.2233 -0.128256 14.0557 -0.128453 14.5694 0.38477L79.9771 65.7558C80.4905 66.2691 80.4909 67.1015 79.9777 67.6149C79.7208 67.8716 79.3843 68 79.0476 68Z" fill="black"/>
<path d="M79.0476 68C78.7114 68 78.3749 67.8718 78.1184 67.6153L12.7107 2.24445C12.197 1.73122 12.1968 0.898779 12.7103 0.385359C13.2233 -0.128256 14.0557 -0.128453 14.5694 0.38477L79.9771 65.7558C80.4905 66.2691 80.4909 67.1015 79.9777 67.6149C79.7208 67.8716 79.3843 68 79.0476 68Z" fill="black"/>
</svg>
