<svg width="93" height="43" viewBox="0 0 93 43" fill="none" xmlns="http://www.w3.org/2000/svg">
<path d="M46.0626 42.5506C33.3801 42.5508 23.954 36.4556 14.8378 30.5612C10.5587 27.7944 6.13391 24.9334 1.471 22.7933C1.46274 22.7895 1.45468 22.7858 1.44642 22.7817C1.24881 22.6861 1.05001 22.5976 0.852201 22.5093L0.781414 22.4779C0.305174 22.2653 -0.000980794 21.7922 2.36089e-06 21.2706C0.000985516 20.7489 0.309303 20.2772 0.78633 20.0666C5.72118 17.8879 10.4409 14.9316 15.0053 12.0724C24.3636 6.21039 34.0404 0.14885 46.4842 0C46.4946 0 46.5052 0 46.5156 0C58.9596 0.149046 68.6364 6.21059 77.9947 12.0724C82.5591 14.9316 87.2788 17.8879 92.2137 20.0666C92.6923 20.2778 93.0008 20.7519 93 21.2751C92.9994 21.7981 92.6897 22.2714 92.2105 22.4816C91.9734 22.5854 91.761 22.6794 91.5628 22.7773C91.5516 22.7827 91.5404 22.7882 91.529 22.7933C86.8667 24.9332 82.4419 27.7938 78.1626 30.5604C68.9412 36.5222 59.4077 42.6872 46.4999 42.5482C46.3554 42.5498 46.2089 42.5506 46.0653 42.5506C46.0649 42.5506 46.0634 42.5506 46.0626 42.5506ZM4.41044 21.2794C8.5566 23.3582 12.4698 25.8884 16.27 28.3457C25.4692 34.2938 34.1595 39.9124 46.0624 39.9124C46.2016 39.9155 46.3444 39.9116 46.4852 39.91C46.4952 39.91 46.505 39.91 46.5148 39.91C58.6301 40.051 67.4214 34.3634 76.7305 28.345C80.5308 25.888 84.444 23.3582 88.5899 21.2794C84.4249 19.2134 80.4553 16.7268 76.5945 14.3083C67.1324 8.3812 58.1959 2.78292 46.5001 2.6382C34.8047 2.78272 25.868 8.3812 16.4059 14.3083C12.5453 16.7268 8.57547 19.2134 4.41044 21.2794Z" fill="black"/>
<path d="M46.5003 32.8824C40.0939 32.8824 34.8819 27.6748 34.8819 21.2735C34.8819 14.873 40.0939 9.6658 46.5003 9.6658C52.9042 9.6658 58.1141 14.873 58.1141 21.2735C58.1141 27.6746 52.9042 32.8824 46.5003 32.8824ZM46.5003 12.3038C41.5485 12.3038 37.5201 16.3277 37.5201 21.2735C37.5201 26.22 41.5487 30.2444 46.5003 30.2444C51.4495 30.2444 55.4761 26.22 55.4761 21.2735C55.4761 16.3275 51.4495 12.3038 46.5003 12.3038Z" fill="black"/>
</svg>
