<svg width="100" height="100" viewBox="0 0 100 100" fill="none" xmlns="http://www.w3.org/2000/svg">
<path fill-rule="evenodd" clip-rule="evenodd" d="M25 29.1667C27.3011 29.1667 29.1666 31.0322 29.1666 33.3334V79.1667C29.1666 81.4679 31.0321 83.3334 33.3333 83.3334H66.6666C68.9679 83.3334 70.8333 81.4679 70.8333 79.1667V33.3334C70.8333 31.0322 72.6987 29.1667 75 29.1667C77.3012 29.1667 79.1666 31.0322 79.1666 33.3334V79.1667C79.1666 86.0704 73.5704 91.6667 66.6666 91.6667H33.3333C26.4298 91.6667 20.8333 86.0704 20.8333 79.1667V33.3334C20.8333 31.0322 22.6988 29.1667 25 29.1667Z" fill="black"/>
<path fill-rule="evenodd" clip-rule="evenodd" d="M41.6667 33.3333C43.9679 33.3333 45.8333 35.1988 45.8333 37.5V70.8333C45.8333 73.1346 43.9679 75 41.6667 75C39.3655 75 37.5 73.1346 37.5 70.8333V37.5C37.5 35.1988 39.3655 33.3333 41.6667 33.3333Z" fill="black"/>
<path fill-rule="evenodd" clip-rule="evenodd" d="M58.3334 33.3333C60.6346 33.3333 62.5 35.1988 62.5 37.5V70.8333C62.5 73.1346 60.6346 75 58.3334 75C56.0321 75 54.1667 73.1346 54.1667 70.8333V37.5C54.1667 35.1988 56.0321 33.3333 58.3334 33.3333Z" fill="black"/>
<path fill-rule="evenodd" clip-rule="evenodd" d="M16.6667 20.8334C16.6667 18.5322 18.5322 16.6667 20.8334 16.6667H79.1667C81.4679 16.6667 83.3334 18.5322 83.3334 20.8334C83.3334 23.1345 81.4679 25 79.1667 25H20.8334C18.5322 25 16.6667 23.1345 16.6667 20.8334Z" fill="black"/>
<path fill-rule="evenodd" clip-rule="evenodd" d="M33.3333 12.5C33.3333 10.1988 35.1988 8.33331 37.5 8.33331H62.5C64.8012 8.33331 66.6666 10.1988 66.6666 12.5C66.6666 14.8011 64.8012 16.6666 62.5 16.6666H37.5C35.1988 16.6666 33.3333 14.8011 33.3333 12.5Z" fill="black"/>
</svg>
