<svg width="87" height="93" viewBox="0 0 87 93" fill="none" xmlns="http://www.w3.org/2000/svg">
<path d="M48.8322 92.6176H38.1679C35.2346 92.6176 32.8482 90.2319 32.8482 87.2997V76.7398C29.0727 75.4127 25.5176 73.3562 22.4692 70.7364L13.3074 76.0243C12.5029 76.4869 11.5888 76.7306 10.6619 76.7308C8.76094 76.7308 6.993 75.7173 6.0481 74.0859L0.711939 64.8418C-0.749005 62.3077 0.123408 59.0525 2.6564 57.5851L11.8137 52.3036C11.4409 50.3306 11.252 48.3185 11.252 46.3086C11.252 44.2989 11.4407 42.287 11.8137 40.3136L2.65856 35.0337C0.117139 33.5612 -0.754882 30.3009 0.712527 27.7644L6.04731 18.5327C6.99457 16.8973 8.76251 15.8825 10.6617 15.8825C11.5909 15.8825 12.5067 16.1288 13.3099 16.5947L22.4698 21.8738C25.5213 19.2577 29.0768 17.2038 32.8482 15.878V5.31813C32.8482 2.38567 35.2346 0 38.1679 0H48.8324C51.766 0 54.1525 2.38567 54.1525 5.31813V15.8778C57.9421 17.2087 61.4977 19.262 64.5327 21.8728L73.6939 16.5927C74.4962 16.1286 75.4121 15.8825 76.3407 15.8825C78.2397 15.8825 80.0059 16.8983 80.9494 18.5334L86.2881 27.7646C87.753 30.307 86.88 33.5666 84.3431 35.0331L75.1864 40.314C75.5567 42.2773 75.744 44.2893 75.744 46.3088C75.744 48.344 75.5572 50.3562 75.1877 52.3044L84.3421 57.584C85.5638 58.2838 86.4425 59.4254 86.8128 60.7966C87.1847 62.1739 86.9987 63.6103 86.2889 64.8415L80.9536 74.0844C80.0079 75.7173 78.2407 76.7308 76.3409 76.731C75.4144 76.731 74.5001 76.4873 73.6962 76.0263L64.5323 70.7366C61.4852 73.3577 57.9297 75.4117 54.1527 76.7326V87.2997C54.1525 90.2319 51.7658 92.6176 48.8322 92.6176ZM22.6316 67.8107C22.9521 67.8107 23.2701 67.9279 23.5183 68.1548C26.681 71.0441 30.499 73.2525 34.5597 74.541C35.1057 74.7144 35.4766 75.2213 35.4766 75.7939V87.2999C35.4766 88.7828 36.6838 89.9894 38.1677 89.9894H48.8322C50.3164 89.9894 51.5237 88.7829 51.5237 87.2999V75.7851C51.5237 75.2115 51.8957 74.704 52.4427 74.5318C56.5042 73.2511 60.3215 71.0463 63.4814 68.1556C63.9044 67.7688 64.5291 67.7005 65.0256 67.9871L75.0069 73.7484C75.4101 73.9796 75.8723 74.1028 76.3405 74.1028C77.3058 74.1026 78.2015 73.5916 78.678 72.769L84.0122 63.5284C84.3701 62.9074 84.4638 62.1805 84.2753 61.4827C84.0884 60.7905 83.6468 60.2155 83.0322 59.8634L73.0527 54.1078C72.5552 53.8208 72.3015 53.2442 72.4265 52.6835C72.8838 50.6299 73.1157 48.4852 73.1157 46.3092C73.1157 44.1533 72.8836 42.0079 72.4259 39.9321C72.3025 39.3724 72.556 38.797 73.0527 38.5106L83.0289 32.7571C84.3115 32.016 84.7529 30.3656 84.0118 29.0792L78.6737 19.8488C78.1972 19.0234 77.3038 18.5115 76.3409 18.5115C75.874 18.5115 75.4134 18.6353 75.0087 18.8694L65.0252 24.6235C64.529 24.9095 63.9044 24.8409 63.4816 24.4542C60.3377 21.5768 56.5201 19.372 52.4409 18.0775C51.8951 17.9042 51.5241 17.3973 51.5241 16.8247V5.31833C51.5241 3.83544 50.3168 2.6286 48.8326 2.6286H38.1679C36.684 2.6286 35.4768 3.83525 35.4768 5.31833V16.8243C35.4768 17.3969 35.1059 17.9038 34.5599 18.0771C30.5033 19.3641 26.6849 21.5699 23.5169 24.456C23.0943 24.8413 22.4709 24.9087 21.9757 24.6233L11.9941 18.8706C11.588 18.6349 11.1284 18.5113 10.6617 18.5113C9.69703 18.5113 8.80052 19.024 8.32248 19.8494L2.98809 29.0806C2.24576 30.3638 2.68814 32.0134 3.97413 32.7583L13.948 38.5104C14.4447 38.7968 14.6984 39.372 14.5749 39.9319C14.1143 42.0208 13.881 44.1663 13.881 46.309C13.881 48.4519 14.1145 50.5974 14.5749 52.6861C14.6984 53.2458 14.4447 53.8212 13.9482 54.1076L3.97217 59.8613C2.69284 60.6022 2.25086 62.2483 2.98907 63.5288L8.32366 72.7706C8.79934 73.5914 9.69566 74.1026 10.6621 74.1026C11.13 74.1026 11.5911 73.9796 11.9957 73.7472L21.9753 67.9871C22.1796 67.8684 22.4063 67.8107 22.6316 67.8107Z" fill="black"/>
<path d="M43.5029 62.2344C34.7147 62.2344 27.5649 55.0903 27.5649 46.309C27.5649 37.5278 34.7147 30.3838 43.5029 30.3838C52.2881 30.3838 59.4353 37.5278 59.4353 46.309C59.4353 55.0903 52.2881 62.2344 43.5029 62.2344ZM43.5029 33.012C36.1641 33.012 30.1936 38.9768 30.1936 46.3088C30.1936 53.6407 36.1641 59.6058 43.5029 59.6058C50.8388 59.6058 56.8069 53.6407 56.8069 46.3088C56.8069 38.9768 50.839 33.012 43.5029 33.012Z" fill="black"/>
</svg>
