<svg width="93" height="93" viewBox="0 0 93 93" fill="none" xmlns="http://www.w3.org/2000/svg">
<path d="M91.6809 56.5964C90.9524 56.5964 90.3619 56.0059 90.3619 55.2774C90.3619 26.2522 66.738 2.63814 37.7004 2.63814C36.9719 2.63814 36.3813 2.04762 36.3813 1.31907C36.3813 0.590513 36.9719 0 37.7004 0C52.4689 0 66.3555 5.75077 76.8015 16.193C87.2473 26.635 93 40.5153 93 55.2776C93 56.0059 92.4095 56.5964 91.6809 56.5964Z" fill="black"/>
<path d="M78.4946 60.9512C77.766 60.9512 77.1755 60.3607 77.1755 59.6322C77.1755 35.4752 57.513 15.8223 33.3446 15.8223C32.6161 15.8223 32.0256 15.2318 32.0256 14.5033C32.0256 13.7747 32.6161 13.1842 33.3446 13.1842C45.758 13.1842 57.4276 18.0147 66.2035 26.786C74.9804 35.5578 79.8138 47.2229 79.8138 59.6322C79.8137 60.3607 79.2231 60.9512 78.4946 60.9512Z" fill="black"/>
<path d="M65.3039 65.294C64.5753 65.294 63.9848 64.7035 63.9848 63.975C63.9848 44.6939 48.288 29.0079 28.9941 29.0079C28.2656 29.0079 27.6751 28.4174 27.6751 27.6888C27.6751 26.9603 28.2656 26.3697 28.9941 26.3697C49.7427 26.3697 66.623 43.2394 66.623 63.975C66.623 64.7035 66.0324 65.294 65.3039 65.294Z" fill="black"/>
<path d="M52.1116 69.6481C51.3831 69.6481 50.7926 69.0576 50.7926 68.329C50.7926 53.9174 39.0617 42.1925 24.6427 42.1925C23.9141 42.1925 23.3236 41.602 23.3236 40.8734C23.3236 40.1448 23.9141 39.5543 24.6427 39.5543C40.5165 39.5543 53.4309 52.4626 53.4309 68.329C53.4309 69.0576 52.8402 69.6481 52.1116 69.6481Z" fill="black"/>
<path d="M38.9207 73.9919C38.1922 73.9919 37.6017 73.4014 37.6017 72.6728C37.6017 63.1365 29.8367 55.378 20.2922 55.378C19.5636 55.378 18.9731 54.7875 18.9731 54.059C18.9731 53.3304 19.5636 52.7399 20.2922 52.7399C31.2915 52.7399 40.24 61.6818 40.24 72.6728C40.2398 73.4014 39.6493 73.9919 38.9207 73.9919Z" fill="black"/>
<path d="M11.4461 92.9601C5.13469 92.9601 0 87.8258 0 81.5146C0 75.2097 5.13469 70.0801 11.4461 70.0801C17.7569 70.0801 22.8912 75.2097 22.8912 81.5146C22.8912 87.8256 17.7569 92.9601 11.4461 92.9601ZM11.4461 72.718C6.58944 72.718 2.63814 76.664 2.63814 81.5144C2.63814 86.3706 6.58924 90.3217 11.4461 90.3217C16.3021 90.3217 20.2528 86.3706 20.2528 81.5144C20.2528 76.6642 16.3021 72.718 11.4461 72.718Z" fill="black"/>
</svg>
