<svg width="93" height="93" viewBox="0 0 93 93" fill="none" xmlns="http://www.w3.org/2000/svg">
<path d="M41.1408 42.4403H1.31913C0.590541 42.4403 0 41.8497 0 41.1211V1.31913C0 0.59054 0.590541 0 1.31913 0H41.1408C41.8694 0 42.4599 0.59054 42.4599 1.31913V41.1209C42.4599 41.8497 41.8694 42.4403 41.1408 42.4403ZM2.63846 39.802H39.8217V2.63826H2.63846V39.802Z" fill="black"/>
<path d="M91.6809 92.9646H51.8596C51.131 92.9646 50.5403 92.3741 50.5403 91.6455V51.8437C50.5403 51.1151 51.131 50.5246 51.8596 50.5246H91.6809C92.4095 50.5246 93 51.1151 93 51.8437V91.6453C93 92.3741 92.4095 92.9646 91.6809 92.9646ZM53.1787 90.3264H90.3617V53.1628H53.1787V90.3264Z" fill="black"/>
<path d="M91.6809 42.4403H51.8596C51.131 42.4403 50.5403 41.8497 50.5403 41.1211V1.31913C50.5403 0.59054 51.131 0 51.8596 0H91.6809C92.4095 0 93 0.59054 93 1.31913V41.1209C93 41.8497 92.4095 42.4403 91.6809 42.4403ZM53.1787 39.802H90.3617V2.63826H53.1787V39.802Z" fill="black"/>
<path d="M41.1408 92.9646H1.31913C0.590541 92.9646 0 92.3741 0 91.6455V51.8437C0 51.1151 0.590541 50.5246 1.31913 50.5246H41.1408C41.8694 50.5246 42.4599 51.1151 42.4599 51.8437V91.6453C42.4599 92.3741 41.8694 92.9646 41.1408 92.9646ZM2.63846 90.3264H39.8217V53.1628H2.63846V90.3264Z" fill="black"/>
</svg>
