<svg width="82" height="93" viewBox="0 0 82 93" fill="none" xmlns="http://www.w3.org/2000/svg">
<path d="M40.8184 93C18.3109 93 0 74.6979 0 52.2013C0 42.9617 3.17809 33.9098 8.94862 26.713C14.631 19.6262 22.6025 14.579 31.3949 12.5014C32.1045 12.3332 32.8153 12.7727 32.9827 13.4821C33.1503 14.1913 32.7112 14.9024 32.002 15.0698C14.7138 19.1552 2.63946 34.4242 2.63946 52.2011C2.63946 73.2421 19.7665 90.3605 40.8184 90.3605C61.8705 90.3605 78.9976 73.2421 78.9976 52.2011C78.9976 51.4722 79.5883 50.8814 80.3172 50.8814C81.0461 50.8814 81.6368 51.4722 81.6368 52.2011C81.6368 63.1 77.3913 73.346 69.6821 81.0513C61.9732 88.7567 51.7223 93 40.8184 93Z" fill="black"/>
<path d="M31.6982 27.5625C31.4639 27.5625 31.2298 27.5003 31.0219 27.376C30.6229 27.1379 30.3786 26.7075 30.3786 26.2428V1.31977C30.3786 0.855107 30.6231 0.424673 31.0221 0.186439C31.4212 -0.0515976 31.9162 -0.0624172 32.325 0.158111L55.4305 12.624C55.8574 12.8545 56.1236 13.3005 56.1234 13.7856C56.1234 14.2708 55.857 14.7167 55.4301 14.9471L32.3248 27.4041C32.1289 27.5099 31.9135 27.5625 31.6982 27.5625ZM33.0181 3.53155V24.032L52.0236 13.7854L33.0181 3.53155Z" fill="black"/>
</svg>
