<svg width="66" height="93" viewBox="0 0 66 93" fill="none" xmlns="http://www.w3.org/2000/svg">
<path d="M59.4575 93L59.4211 92.9998L6.03207 92.6827C4.41598 92.6732 2.89687 92.0307 1.75489 90.8736C0.613689 89.7174 -0.00933699 88.1909 0.000105783 86.5752L0.237356 46.6726C0.257225 43.3511 2.9793 40.6488 6.30532 40.6488L6.34152 40.649L59.7306 40.9664C63.0792 40.986 65.7881 43.7203 65.7686 47.0617L65.5312 86.9653C65.5115 90.2927 62.7871 93 59.4575 93ZM6.30532 43.2881C4.42601 43.2881 2.88783 44.8133 2.87661 46.6881L2.63936 86.5905C2.63405 87.5019 2.98717 88.3646 3.63341 89.0195C4.27965 89.6742 5.13717 90.0379 6.04761 90.0432L59.4573 90.3603C61.34 90.3603 62.8805 88.8302 62.8917 86.9495L63.1292 47.0459C63.1402 45.1601 61.6085 43.6164 59.7148 43.6054L6.30532 43.2881Z" fill="black"/>
<path d="M58.5268 26.0672C58.5241 26.0672 58.5215 26.0672 58.5188 26.0672C57.7899 26.0631 57.2027 25.4686 57.207 24.7397C57.2418 18.8966 54.7847 13.382 50.2888 9.21168C45.7608 5.01181 39.7131 2.67787 33.2599 2.63991C33.2058 2.63971 33.1515 2.63951 33.0978 2.63951C26.707 2.63951 20.6965 4.89791 16.1563 9.00906C11.6094 13.1263 9.08621 18.6114 9.05139 24.4539C9.04706 25.1798 8.45709 25.7657 7.73196 25.7657C7.72921 25.7657 7.72665 25.7657 7.72389 25.7657C6.99503 25.7615 6.40781 25.167 6.41214 24.4382C6.45128 17.8467 9.28274 11.6723 14.3848 7.05263C19.454 2.46266 26.1637 -0.0463681 33.2757 0.000649014C40.391 0.0425513 47.0704 2.62672 52.0837 7.2767C57.1287 11.956 59.8854 18.1634 59.8462 24.7555C59.8421 25.4816 59.2519 26.0672 58.5268 26.0672Z" fill="black"/>
<path d="M7.62751 43.295C7.62476 43.295 7.6222 43.295 7.61945 43.295C6.89058 43.2909 6.30336 42.6964 6.30769 41.9675L6.41215 24.4384C6.41648 23.7122 7.00645 23.1266 7.73158 23.1266C7.73433 23.1266 7.73689 23.1266 7.73965 23.1266C8.46851 23.1307 9.05573 23.7252 9.05141 24.4541L8.94694 41.9832C8.94262 42.7093 8.35264 43.295 7.62751 43.295Z" fill="black"/>
<path d="M58.4224 43.5977C58.4196 43.5977 58.4171 43.5977 58.4143 43.5977C57.6855 43.5936 57.0982 42.9991 57.1026 42.2702L57.207 24.7399C57.2112 24.0138 57.8013 23.4282 58.5265 23.4282C58.5292 23.4282 58.5318 23.4282 58.5345 23.4282C59.2634 23.4323 59.8506 24.0268 59.8463 24.7557L59.7418 42.286C59.7377 43.0121 59.1475 43.5977 58.4224 43.5977Z" fill="black"/>
<path d="M32.8525 73.4885C32.8511 73.4885 32.8497 73.4885 32.8484 73.4885C32.1195 73.4863 31.5305 72.8938 31.5327 72.1647L31.5388 70.1144C31.5409 69.3871 32.1315 68.7987 32.8584 68.7987C32.8598 68.7987 32.8612 68.7987 32.8625 68.7987C33.5914 68.8009 34.1804 69.3934 34.1782 70.1225L34.1721 72.1728C34.17 72.9002 33.5796 73.4885 32.8525 73.4885Z" fill="black"/>
<path d="M32.8968 68.1383C32.8944 68.1383 32.8738 68.1381 32.8714 68.1381C30.3431 68.1226 28.2997 66.0548 28.3151 63.5287C28.3296 61.0181 30.3848 58.9753 32.8966 58.9753L32.9253 58.9755C34.1487 58.982 35.2972 59.4659 36.1585 60.3382C37.0184 61.2091 37.4879 62.3615 37.4809 63.5832C37.4655 66.095 35.4092 68.1383 32.8968 68.1383ZM32.91 61.6149C31.8319 61.6149 30.9604 62.4805 30.9543 63.5446C30.9478 64.6158 31.8148 65.4922 32.8868 65.4991L32.8968 66.8187V65.4991C33.9624 65.4991 34.8351 64.6327 34.8416 63.5678C34.8446 63.0508 34.6453 62.5626 34.2804 62.1931C33.9152 61.8229 33.4285 61.6177 32.91 61.6149Z" fill="black"/>
</svg>
