<svg width="93" height="71" viewBox="0 0 93 71" fill="none" xmlns="http://www.w3.org/2000/svg">
<path d="M91.681 70.8353H1.319C0.590484 70.8353 0 70.2448 0 69.5163V1.319C0 0.590484 0.590484 0 1.319 0H91.681C92.4095 0 93 0.590484 93 1.319V69.5163C93 70.2448 92.4095 70.8353 91.681 70.8353ZM2.63801 68.1973H90.362V2.63801H2.63801V68.1973Z" fill="black"/>
<path d="M26.4859 59.4124C26.2564 59.4124 26.0267 59.3526 25.8216 59.2331C25.4162 58.9967 25.1669 58.5628 25.1669 58.0934V12.7417C25.1669 12.2724 25.4164 11.8384 25.8218 11.6021C26.2271 11.3655 26.7277 11.3626 27.1363 11.594L67.1644 34.2754C67.5779 34.5096 67.8333 34.9481 67.8331 35.4234C67.8331 35.8984 67.5775 36.3369 67.1642 36.5709L27.1359 59.2412C26.9342 59.3554 26.71 59.4124 26.4859 59.4124ZM27.8049 15.0054V55.8304L63.8378 35.423L27.8049 15.0054Z" fill="black"/>
</svg>
