<svg width="93" height="67" viewBox="0 0 93 67" fill="none" xmlns="http://www.w3.org/2000/svg">
<path d="M91.681 6.26151H27.9851C27.2566 6.26151 26.6661 5.67103 26.6661 4.94251C26.6661 4.21399 27.2566 3.62351 27.9851 3.62351H91.681C92.4095 3.62351 93 4.21399 93 4.94251C93 5.67103 92.4095 6.26151 91.681 6.26151Z" fill="black"/>
<path d="M91.681 34.7248H27.9851C27.2566 34.7248 26.6661 34.1344 26.6661 33.4058C26.6661 32.6773 27.2566 32.0868 27.9851 32.0868H91.681C92.4095 32.0868 93 32.6773 93 33.4058C93 34.1344 92.4095 34.7248 91.681 34.7248Z" fill="black"/>
<path d="M91.681 63.1996H27.9851C27.2566 63.1996 26.6661 62.6091 26.6661 61.8806C26.6661 61.1521 27.2566 60.5616 27.9851 60.5616H91.681C92.4095 60.5616 93 61.1521 93 61.8806C93 62.6091 92.4095 63.1996 91.681 63.1996Z" fill="black"/>
<path d="M4.94291 9.88248C2.21741 9.88248 0 7.66645 0 4.94252C0 2.21721 2.21741 0 4.94291 0C7.67156 0 9.89152 2.21702 9.89152 4.94252C9.89152 7.66645 7.67156 9.88248 4.94291 9.88248ZM4.94291 2.638C3.67209 2.638 2.6382 3.67189 2.6382 4.94252C2.6382 6.21177 3.67209 7.24448 4.94291 7.24448C6.21688 7.24448 7.25333 6.21177 7.25333 4.94252C7.25333 3.67189 6.21688 2.638 4.94291 2.638Z" fill="black"/>
<path d="M4.94291 38.3468C2.21741 38.3468 0 36.1304 0 33.4057C0 30.6809 2.21741 28.4645 4.94291 28.4645C7.67156 28.4645 9.89152 30.6809 9.89152 33.4057C9.89152 36.1304 7.67156 38.3468 4.94291 38.3468ZM4.94291 31.1027C3.67209 31.1027 2.6382 32.136 2.6382 33.4058C2.6382 34.6757 3.67209 35.709 4.94291 35.709C6.21688 35.709 7.25333 34.6757 7.25333 33.4058C7.25333 32.136 6.21688 31.1027 4.94291 31.1027Z" fill="black"/>
<path d="M4.94291 66.8115C2.21741 66.8115 0 64.5996 0 61.8806C0 59.1504 2.21741 56.9294 4.94291 56.9294C7.67156 56.9294 9.89152 59.1504 9.89152 61.8806C9.89152 64.5996 7.67156 66.8115 4.94291 66.8115ZM4.94291 59.5674C3.67209 59.5674 2.6382 60.605 2.6382 61.8806C2.6382 63.1449 3.67209 64.1735 4.94291 64.1735C6.21688 64.1735 7.25333 63.1449 7.25333 61.8806C7.25333 60.6052 6.21688 59.5674 4.94291 59.5674Z" fill="black"/>
</svg>
