<svg width="93" height="78" viewBox="0 0 93 78" fill="none" xmlns="http://www.w3.org/2000/svg">
<path d="M72.6048 7.36679H23.7235C22.995 7.36679 22.4045 6.77631 22.4045 6.04779C22.4045 5.31928 22.995 4.72879 23.7235 4.72879H72.605C73.3336 4.72879 73.924 5.31928 73.924 6.04779C73.924 6.77631 73.3334 7.36679 72.6048 7.36679Z" fill="black"/>
<path d="M6.04699 12.0849C2.71272 12.0849 0 9.37812 0 6.05112C0 2.71429 2.71272 0 6.04699 0C9.37537 0 12.0832 2.71449 12.0832 6.05112C12.0832 9.37832 9.37537 12.0849 6.04699 12.0849ZM6.04699 2.638C4.1674 2.638 2.6382 4.16917 2.6382 6.05112C2.6382 7.92344 4.1674 9.44694 6.04699 9.44694C7.92069 9.44694 9.44498 7.92364 9.44498 6.05112C9.44498 4.16917 7.92069 2.638 6.04699 2.638Z" fill="black"/>
<path d="M78.9674 29.2096H30.0857C29.3572 29.2096 28.7667 28.6191 28.7667 27.8906C28.7667 27.162 29.3572 26.5716 30.0857 26.5716H78.9674C79.6959 26.5716 80.2864 27.162 80.2864 27.8906C80.2864 28.6191 79.6959 29.2096 78.9674 29.2096Z" fill="black"/>
<path d="M12.4011 33.9273C9.07039 33.9273 6.36061 31.2193 6.36061 27.8906C6.36061 24.561 9.07039 21.8524 12.4011 21.8524C15.733 21.8524 18.4436 24.561 18.4436 27.8906C18.4438 31.2193 15.733 33.9273 12.4011 33.9273ZM12.4011 24.4904C10.5251 24.4904 8.99881 26.0159 8.99881 27.8906C8.99881 29.7646 10.5251 31.2893 12.4011 31.2893C14.2784 31.2893 15.8054 29.7646 15.8054 27.8906C15.8056 26.0159 14.2784 24.4904 12.4011 24.4904Z" fill="black"/>
<path d="M85.3243 51.0545H36.4424C35.7139 51.0545 35.1234 50.464 35.1234 49.7355C35.1234 49.0069 35.7139 48.4165 36.4424 48.4165H85.3243C86.0528 48.4165 86.6433 49.0069 86.6433 49.7355C86.6433 50.464 86.0528 51.0545 85.3243 51.0545Z" fill="black"/>
<path d="M18.7612 55.7734C15.429 55.7734 12.7181 53.0654 12.7181 49.7367C12.7181 46.4047 15.429 43.6942 18.7612 43.6942C22.0913 43.6942 24.8005 46.4047 24.8005 49.7367C24.8007 53.0652 22.0913 55.7734 18.7612 55.7734ZM18.7612 46.332C16.8837 46.332 15.3563 47.8594 15.3563 49.7365C15.3563 51.6105 16.8837 53.1352 18.7612 53.1352C20.6366 53.1352 22.1623 51.6105 22.1623 49.7365C22.1625 47.8594 20.6366 46.332 18.7612 46.332Z" fill="black"/>
<path d="M91.681 72.8968H42.8003C42.0718 72.8968 41.4813 72.3063 41.4813 71.5778C41.4813 70.8493 42.0718 70.2588 42.8003 70.2588H91.681C92.4095 70.2588 93 70.8493 93 71.5778C93 72.3063 92.4095 72.8968 91.681 72.8968Z" fill="black"/>
<path d="M25.1169 77.615C21.7861 77.615 19.0764 74.9068 19.0764 71.5778C19.0764 68.2485 21.7861 65.5401 25.1169 65.5401C28.4488 65.5401 31.1595 68.2485 31.1595 71.5778C31.1595 74.9066 28.4488 77.615 25.1169 77.615ZM25.1169 68.1781C23.2408 68.1781 21.7146 69.7033 21.7146 71.5778C21.7146 73.4521 23.2408 74.977 25.1169 74.977C26.9941 74.977 28.5213 73.4521 28.5213 71.5778C28.5213 69.7033 26.9941 68.1781 25.1169 68.1781Z" fill="black"/>
</svg>
