<svg width="63" height="93" viewBox="0 0 63 93" fill="none" xmlns="http://www.w3.org/2000/svg">
<path d="M57.4699 93H5.35741C2.40339 93 0 90.5982 0 87.6457V53.7764C0 50.8239 2.40339 48.4221 5.35741 48.4221H57.4699C60.4204 48.4221 62.8206 50.8239 62.8206 53.7764V87.6457C62.8208 90.5982 60.4204 93 57.4699 93ZM5.35741 51.0614C3.85876 51.0614 2.63946 52.2793 2.63946 53.7764V87.6457C2.63946 89.1426 3.85876 90.3607 5.35741 90.3607H57.4699C58.965 90.3607 60.1813 89.1428 60.1813 87.6457V53.7764C60.1813 52.2795 58.9648 51.0614 57.4699 51.0614H5.35741Z" fill="black"/>
<path d="M55.7131 24.9117C54.9842 24.9117 54.3935 24.3209 54.3935 23.5921C54.3935 12.0386 44.0833 2.63926 31.4105 2.63926C18.7406 2.63926 8.433 12.0386 8.433 23.5921C8.433 24.3209 7.84223 24.9117 7.11337 24.9117C6.3845 24.9117 5.79374 24.3209 5.79374 23.5921C5.79374 10.5834 17.2856 0 31.4107 0C45.5389 0 57.0329 10.5834 57.0329 23.5921C57.0327 24.3209 56.442 24.9117 55.7131 24.9117Z" fill="black"/>
<path d="M55.7131 51.0614C54.9843 51.0614 54.3935 50.4706 54.3935 49.7417V23.5921C54.3935 22.8632 54.9843 22.2724 55.7131 22.2724C56.442 22.2724 57.0328 22.8632 57.0328 23.5921V49.7417C57.0328 50.4706 56.442 51.0614 55.7131 51.0614Z" fill="black"/>
<path d="M32.1669 77.6387C31.4381 77.6387 30.8473 77.048 30.8473 76.3191V74.3574C30.8473 73.6285 31.4381 73.0377 32.1669 73.0377C32.8958 73.0377 33.4867 73.6285 33.4867 74.3574V76.3191C33.4867 77.048 32.8958 77.6387 32.1669 77.6387Z" fill="black"/>
<path d="M32.1669 72.5189C29.7173 72.5189 27.7245 70.5263 27.7245 68.0769C27.7245 65.6289 29.7173 63.6374 32.1669 63.6374C34.6159 63.6374 36.6084 65.6289 36.6084 68.0769C36.6084 70.5263 34.6161 72.5189 32.1669 72.5189ZM32.1669 66.2767C31.1727 66.2767 30.3639 67.0842 30.3639 68.0769C30.3639 69.071 31.1727 69.8797 32.1669 69.8797C33.1606 69.8797 33.9689 69.071 33.9689 68.0769C33.9689 67.0842 33.1606 66.2767 32.1669 66.2767Z" fill="black"/>
</svg>
